<?xml version="1.0" encoding="UTF-8"?>
<!-- This file is generated by npm run build:icons -->
<svg xmlns="http://www.w3.org/2000/svg" xmlns:xlink="http://www.w3.org/1999/xlink" width="0" height="0">
<defs>
<symbol viewBox="0 0 24 24" fill="none" stroke="currentColor" stroke-width="2" stroke-linecap="round" stroke-linejoin="round" id="laptop">
  <path d="M20 16V7a2 2 0 0 0-2-2H6a2 2 0 0 0-2 2v9m16 0H4m16 0 1.28 2.55a1 1 0 0 1-.9 1.45H3.62a1 1 0 0 1-.9-1.45L4 16" ></path>
</symbol>
<symbol viewBox="0 0 24 24" fill="none" stroke="currentColor" stroke-width="2" stroke-linecap="round" stroke-linejoin="round" id="moon">
  <path d="M12 3a6 6 0 0 0 9 9 9 9 0 1 1-9-9Z" ></path>
</symbol>
<symbol viewBox="0 0 24 24" fill="none" stroke="currentColor" stroke-width="2" stroke-linecap="round" stroke-linejoin="round" id="search">
  <circle cx="11" cy="11" r="8" ></circle>
  <path d="m21 21-4.3-4.3" ></path>
</symbol>
<symbol viewBox="0 0 24 24" fill="none" stroke="currentColor" stroke-width="2" stroke-linecap="round" stroke-linejoin="round" id="sun">
  <circle cx="12" cy="12" r="4" ></circle>
  <path d="M12 2v2" ></path>
  <path d="M12 20v2" ></path>
  <path d="m4.93 4.93 1.41 1.41" ></path>
  <path d="m17.66 17.66 1.41 1.41" ></path>
  <path d="M2 12h2" ></path>
  <path d="M20 12h2" ></path>
  <path d="m6.34 17.66-1.41 1.41" ></path>
  <path d="m19.07 4.93-1.41 1.41" ></path>
</symbol>
<symbol viewBox="0 0 24 24" fill="none" stroke="currentColor" stroke-width="2" stroke-linecap="round" stroke-linejoin="round" id="user">
  <path d="M19 21v-2a4 4 0 0 0-4-4H9a4 4 0 0 0-4 4v2" ></path>
  <circle cx="12" cy="7" r="4" ></circle>
</symbol>
</defs>
</svg>
